<svg width="512" height="512" viewBox="0 0 54 54" fill="none" xmlns="http://www.w3.org/2000/svg">
  <defs>
    <linearGradient id="outer" x1="8" y1="6" x2="46" y2="49">
      <stop offset="0%" stop-color="#F6DB96" />
      <stop offset="58%" stop-color="#BC8F42" />
      <stop offset="100%" stop-color="#6E471C" />
    </linearGradient>
    <linearGradient id="inner" x1="14" y1="10" x2="40" y2="45">
      <stop offset="0%" stop-color="#8B1933" />
      <stop offset="100%" stop-color="#2E0812" />
    </linearGradient>
    <radialGradient id="glow" cx="0" cy="0" r="1" gradientTransform="translate(22 16) rotate(39) scale(22)">
      <stop offset="0%" stop-color="#FFFFFF" stop-opacity="0.34" />
      <stop offset="100%" stop-color="#FFFFFF" stop-opacity="0" />
    </radialGradient>
    <linearGradient id="trend" x1="15" y1="33" x2="38" y2="20">
      <stop offset="0%" stop-color="#F2D28A" />
      <stop offset="100%" stop-color="#FFDFA0" />
    </linearGradient>
  </defs>

  <path d="M27 5.5C38.6 5.5 47.7 12.8 47.7 24.4C47.7 37.4 37.9 46.4 27 49C16.1 46.4 6.3 37.4 6.3 24.4C6.3 12.8 15.4 5.5 27 5.5Z" fill="url(#inner)" />
  <path d="M27 5.5C38.6 5.5 47.7 12.8 47.7 24.4C47.7 37.4 37.9 46.4 27 49C16.1 46.4 6.3 37.4 6.3 24.4C6.3 12.8 15.4 5.5 27 5.5Z" stroke="url(#outer)" stroke-width="2.2" />
  <path d="M27 5.5C38.6 5.5 47.7 12.8 47.7 24.4C47.7 37.4 37.9 46.4 27 49C16.1 46.4 6.3 37.4 6.3 24.4C6.3 12.8 15.4 5.5 27 5.5Z" fill="url(#glow)" />

  <path d="M17.4 34.2V29.4" stroke="url(#outer)" stroke-width="2.3" stroke-linecap="round" />
  <path d="M23 34.2V25.7" stroke="url(#outer)" stroke-width="2.3" stroke-linecap="round" />
  <path d="M28.6 34.2V22.9" stroke="url(#outer)" stroke-width="2.3" stroke-linecap="round" />
  <path d="M34.2 34.2V19.9" stroke="url(#outer)" stroke-width="2.3" stroke-linecap="round" />

  <path d="M14.8 30.4L20.4 27.2L25.2 28.8L32.1 21.4L38.1 23.3" stroke="url(#trend)" stroke-width="2.5" stroke-linecap="round" stroke-linejoin="round" />
  <path d="M37.8 19.8L39.3 23.9L35.1 25.2" stroke="url(#trend)" stroke-width="2.1" stroke-linecap="round" stroke-linejoin="round" />
</svg>
